<mxfile host="app.diagrams.net" modified="2020-07-27T20:04:33.401Z" agent="5.0 (Windows)" etag="HFkNwVt1v0m5uI2bdgjD" version="13.5.3" type="github">
  <diagram id="Q_lOnS4r0_ss_FTSmzWR" name="Page-1">
    <mxGraphModel dx="1707" dy="1543" grid="1" gridSize="10" guides="1" tooltips="1" connect="1" arrows="1" fold="1" page="1" pageScale="1" pageWidth="850" pageHeight="1100" math="0" shadow="0">
      <root>
        <mxCell id="0" />
        <mxCell id="1" parent="0" />
        <mxCell id="NaYjg0dRKSiKINNw68Ge-25" value="" style="rounded=1;arcSize=10;dashed=0;fillColor=none;gradientColor=none;strokeWidth=2;" parent="1" vertex="1">
          <mxGeometry x="100" width="790" height="460" as="geometry" />
        </mxCell>
        <mxCell id="NaYjg0dRKSiKINNw68Ge-26" value="" style="dashed=0;html=1;shape=mxgraph.aws3.cloud;fillColor=#F58536;gradientColor=none;dashed=0;strokeColor=#;" parent="1" vertex="1">
          <mxGeometry x="110" y="20" width="52" height="36" as="geometry" />
        </mxCell>
        <mxCell id="NaYjg0dRKSiKINNw68Ge-75" style="edgeStyle=orthogonalEdgeStyle;rounded=0;orthogonalLoop=1;jettySize=auto;html=1;entryX=0;entryY=0.5;entryDx=0;entryDy=0;entryPerimeter=0;" parent="1" source="NaYjg0dRKSiKINNw68Ge-33" target="NaYjg0dRKSiKINNw68Ge-73" edge="1">
          <mxGeometry relative="1" as="geometry" />
        </mxCell>
        <mxCell id="NaYjg0dRKSiKINNw68Ge-33" value="A[pplication Logging" style="verticalLabelPosition=bottom;verticalAlign=top;html=1;shape=mxgraph.basic.rect;fillColor2=none;strokeWidth=1;size=20;indent=5;" parent="1" vertex="1">
          <mxGeometry x="-170" y="45" width="110" height="340" as="geometry" />
        </mxCell>
        <mxCell id="NaYjg0dRKSiKINNw68Ge-39" value="" style="shape=mxgraph.cisco.computers_and_peripherals.laptop;html=1;dashed=0;fillColor=#036897;strokeColor=#ffffff;strokeWidth=2;verticalLabelPosition=bottom;verticalAlign=top" parent="1" vertex="1">
          <mxGeometry x="-170" y="315.13" width="90" height="61" as="geometry" />
        </mxCell>
        <mxCell id="NaYjg0dRKSiKINNw68Ge-40" value="" style="shape=mxgraph.cisco.computers_and_peripherals.laptop;html=1;dashed=0;fillColor=#036897;strokeColor=#ffffff;strokeWidth=2;verticalLabelPosition=bottom;verticalAlign=top" parent="1" vertex="1">
          <mxGeometry x="-160" y="60.38" width="90" height="61" as="geometry" />
        </mxCell>
        <mxCell id="NaYjg0dRKSiKINNw68Ge-41" value="" style="shape=mxgraph.cisco.computers_and_peripherals.laptop;html=1;dashed=0;fillColor=#036897;strokeColor=#ffffff;strokeWidth=2;verticalLabelPosition=bottom;verticalAlign=top" parent="1" vertex="1">
          <mxGeometry x="-160" y="152.25" width="90" height="61" as="geometry" />
        </mxCell>
        <mxCell id="NaYjg0dRKSiKINNw68Ge-42" value="" style="shape=mxgraph.cisco.computers_and_peripherals.laptop;html=1;dashed=0;fillColor=#036897;strokeColor=#ffffff;strokeWidth=2;verticalLabelPosition=bottom;verticalAlign=top" parent="1" vertex="1">
          <mxGeometry x="-170" y="236.13" width="90" height="61" as="geometry" />
        </mxCell>
        <mxCell id="NaYjg0dRKSiKINNw68Ge-46" style="edgeStyle=orthogonalEdgeStyle;rounded=0;orthogonalLoop=1;jettySize=auto;html=1;exitX=0.65;exitY=0.5;exitDx=0;exitDy=0;exitPerimeter=0;" parent="1" source="NaYjg0dRKSiKINNw68Ge-47" target="NaYjg0dRKSiKINNw68Ge-51" edge="1">
          <mxGeometry relative="1" as="geometry">
            <mxPoint x="330" y="87" as="targetPoint" />
            <Array as="points" />
          </mxGeometry>
        </mxCell>
        <mxCell id="NaYjg0dRKSiKINNw68Ge-47" value="API GATEWAY" style="outlineConnect=0;dashed=0;verticalLabelPosition=bottom;verticalAlign=top;align=center;html=1;shape=mxgraph.aws3.api_gateway;fillColor=#D9A741;gradientColor=none;strokeColor=#;" parent="1" vertex="1">
          <mxGeometry x="160" y="59.25" width="76.5" height="93" as="geometry" />
        </mxCell>
        <mxCell id="NaYjg0dRKSiKINNw68Ge-48" style="edgeStyle=orthogonalEdgeStyle;rounded=0;orthogonalLoop=1;jettySize=auto;html=1;entryX=1;entryY=0.5;entryDx=0;entryDy=0;entryPerimeter=0;" parent="1" source="NaYjg0dRKSiKINNw68Ge-49" target="NaYjg0dRKSiKINNw68Ge-60" edge="1">
          <mxGeometry relative="1" as="geometry">
            <mxPoint x="380" y="286" as="targetPoint" />
          </mxGeometry>
        </mxCell>
        <mxCell id="NaYjg0dRKSiKINNw68Ge-49" value="Lambda" style="outlineConnect=0;dashed=0;verticalLabelPosition=bottom;verticalAlign=top;align=center;html=1;shape=mxgraph.aws3.lambda_function;fillColor=#F58534;gradientColor=none;" parent="1" vertex="1">
          <mxGeometry x="740" y="334.5" width="82.75" height="72" as="geometry" />
        </mxCell>
        <mxCell id="NaYjg0dRKSiKINNw68Ge-50" style="edgeStyle=orthogonalEdgeStyle;rounded=0;orthogonalLoop=1;jettySize=auto;html=1;entryX=0;entryY=0.5;entryDx=0;entryDy=0;entryPerimeter=0;" parent="1" source="NaYjg0dRKSiKINNw68Ge-51" target="NaYjg0dRKSiKINNw68Ge-53" edge="1">
          <mxGeometry relative="1" as="geometry" />
        </mxCell>
        <mxCell id="NaYjg0dRKSiKINNw68Ge-51" value="SNS Topic" style="outlineConnect=0;dashed=0;verticalLabelPosition=bottom;verticalAlign=top;align=center;html=1;shape=mxgraph.aws3.sns;fillColor=#D9A741;gradientColor=none;" parent="1" vertex="1">
          <mxGeometry x="460" y="67.5" width="76.5" height="76.5" as="geometry" />
        </mxCell>
        <mxCell id="NaYjg0dRKSiKINNw68Ge-52" style="edgeStyle=orthogonalEdgeStyle;rounded=0;orthogonalLoop=1;jettySize=auto;html=1;exitX=1;exitY=0.5;exitDx=0;exitDy=0;exitPerimeter=0;" parent="1" source="NaYjg0dRKSiKINNw68Ge-53" target="NaYjg0dRKSiKINNw68Ge-49" edge="1">
          <mxGeometry relative="1" as="geometry">
            <mxPoint x="690" y="200" as="sourcePoint" />
            <Array as="points">
              <mxPoint x="747" y="103" />
              <mxPoint x="790" y="103" />
            </Array>
          </mxGeometry>
        </mxCell>
        <mxCell id="NaYjg0dRKSiKINNw68Ge-53" value="SQS" style="outlineConnect=0;dashed=0;verticalLabelPosition=bottom;verticalAlign=top;align=center;html=1;shape=mxgraph.aws3.sqs;fillColor=#D9A741;gradientColor=none;" parent="1" vertex="1">
          <mxGeometry x="690" y="59.25" width="76.5" height="93" as="geometry" />
        </mxCell>
        <mxCell id="NaYjg0dRKSiKINNw68Ge-54" value="S3" style="outlineConnect=0;dashed=0;verticalLabelPosition=bottom;verticalAlign=top;align=center;html=1;shape=mxgraph.aws3.s3;fillColor=#E05243;gradientColor=none;" parent="1" vertex="1">
          <mxGeometry x="162" y="324" width="76.5" height="93" as="geometry" />
        </mxCell>
        <mxCell id="NaYjg0dRKSiKINNw68Ge-55" value="IAM ROLE" style="outlineConnect=0;dashed=0;verticalLabelPosition=bottom;verticalAlign=top;align=center;html=1;shape=mxgraph.aws3.role;fillColor=#759C3E;gradientColor=none;strokeColor=#;" parent="1" vertex="1">
          <mxGeometry x="620" y="310" width="40" height="36.75" as="geometry" />
        </mxCell>
        <mxCell id="NaYjg0dRKSiKINNw68Ge-56" value="IAM ROLE" style="outlineConnect=0;dashed=0;verticalLabelPosition=bottom;verticalAlign=top;align=center;html=1;shape=mxgraph.aws3.role;fillColor=#759C3E;gradientColor=none;strokeColor=#;" parent="1" vertex="1">
          <mxGeometry x="340" y="50" width="40" height="31.75" as="geometry" />
        </mxCell>
        <mxCell id="NaYjg0dRKSiKINNw68Ge-57" value="IAM ROLE" style="outlineConnect=0;dashed=0;verticalLabelPosition=bottom;verticalAlign=top;align=center;html=1;shape=mxgraph.aws3.role;fillColor=#759C3E;gradientColor=none;strokeColor=#;" parent="1" vertex="1">
          <mxGeometry x="590" y="45" width="40" height="36.75" as="geometry" />
        </mxCell>
        <mxCell id="NaYjg0dRKSiKINNw68Ge-61" style="edgeStyle=orthogonalEdgeStyle;rounded=0;orthogonalLoop=1;jettySize=auto;html=1;exitX=0;exitY=0.5;exitDx=0;exitDy=0;exitPerimeter=0;" parent="1" source="NaYjg0dRKSiKINNw68Ge-60" target="NaYjg0dRKSiKINNw68Ge-54" edge="1">
          <mxGeometry relative="1" as="geometry" />
        </mxCell>
        <mxCell id="NaYjg0dRKSiKINNw68Ge-60" value="Python boto3" style="outlineConnect=0;dashed=0;verticalLabelPosition=bottom;verticalAlign=top;align=center;html=1;shape=mxgraph.aws3.android;fillColor=#FFD44F;gradientColor=none;strokeColor=#;" parent="1" vertex="1">
          <mxGeometry x="440" y="328.5" width="73.5" height="84" as="geometry" />
        </mxCell>
        <mxCell id="NaYjg0dRKSiKINNw68Ge-63" value="&lt;div&gt;Publish&lt;/div&gt;" style="edgeStyle=orthogonalEdgeStyle;html=1;endArrow=block;elbow=vertical;startArrow=none;endFill=1;strokeColor=#545B64;rounded=0;" parent="1" edge="1">
          <mxGeometry width="100" relative="1" as="geometry">
            <mxPoint x="290" y="120" as="sourcePoint" />
            <mxPoint x="390" y="120" as="targetPoint" />
          </mxGeometry>
        </mxCell>
        <mxCell id="NaYjg0dRKSiKINNw68Ge-65" value="Subscribe" style="edgeStyle=orthogonalEdgeStyle;html=1;endArrow=none;elbow=vertical;startArrow=block;startFill=1;strokeColor=#545B64;rounded=0;" parent="1" edge="1">
          <mxGeometry width="100" relative="1" as="geometry">
            <mxPoint x="560" y="120" as="sourcePoint" />
            <mxPoint x="660" y="120" as="targetPoint" />
          </mxGeometry>
        </mxCell>
        <mxCell id="NaYjg0dRKSiKINNw68Ge-70" value="Trigger" style="edgeStyle=orthogonalEdgeStyle;html=1;endArrow=block;elbow=vertical;startArrow=none;endFill=1;strokeColor=#545B64;rounded=0;" parent="1" edge="1">
          <mxGeometry width="100" relative="1" as="geometry">
            <mxPoint x="810" y="175" as="sourcePoint" />
            <mxPoint x="810" y="285" as="targetPoint" />
            <Array as="points">
              <mxPoint x="810" y="254.75" />
              <mxPoint x="810" y="254.75" />
            </Array>
          </mxGeometry>
        </mxCell>
        <mxCell id="NaYjg0dRKSiKINNw68Ge-72" value="IAM ROLE" style="outlineConnect=0;dashed=0;verticalLabelPosition=bottom;verticalAlign=top;align=center;html=1;shape=mxgraph.aws3.role;fillColor=#759C3E;gradientColor=none;strokeColor=#;" parent="1" vertex="1">
          <mxGeometry x="730" y="220" width="45.5" height="34.87" as="geometry" />
        </mxCell>
        <mxCell id="NaYjg0dRKSiKINNw68Ge-77" style="edgeStyle=orthogonalEdgeStyle;rounded=0;orthogonalLoop=1;jettySize=auto;html=1;entryX=0.076;entryY=0.239;entryDx=0;entryDy=0;entryPerimeter=0;" parent="1" source="NaYjg0dRKSiKINNw68Ge-73" target="NaYjg0dRKSiKINNw68Ge-25" edge="1">
          <mxGeometry relative="1" as="geometry" />
        </mxCell>
        <mxCell id="NaYjg0dRKSiKINNw68Ge-73" value="" style="outlineConnect=0;dashed=0;verticalLabelPosition=bottom;verticalAlign=top;align=center;html=1;shape=mxgraph.aws3.http_protocol;fillColor=#5294CF;gradientColor=none;strokeColor=#;" parent="1" vertex="1">
          <mxGeometry x="-20" y="184.38" width="63" height="61.25" as="geometry" />
        </mxCell>
      </root>
    </mxGraphModel>
  </diagram>
</mxfile>
